<svg width="607" height="607" viewBox="0 0 607 607" fill="none" xmlns="http://www.w3.org/2000/svg">
<g clip-path="url(#clip0_1_17)">
<path d="M137.955 121.4C137.955 105.301 143.768 89.8621 154.117 78.4786C164.466 67.0952 178.501 60.7 193.136 60.7C200.454 60.7 207.472 57.5024 212.646 51.8107C217.82 46.119 220.727 38.3993 220.727 30.35C220.727 22.3007 217.82 14.581 212.646 8.88931C207.472 3.19758 200.454 0 193.136 0C163.866 0 135.795 12.7903 115.097 35.5572C94.4003 58.3242 82.7727 89.2027 82.7727 121.4V212.45C82.7727 228.549 76.959 243.988 66.6104 255.371C56.2618 266.755 42.226 273.15 27.5909 273.15C20.2733 273.15 13.2555 276.348 8.08119 282.039C2.90689 287.731 0 295.451 0 303.5C0 311.549 2.90689 319.269 8.08119 324.961C13.2555 330.652 20.2733 333.85 27.5909 333.85C42.226 333.85 56.2618 340.245 66.6104 351.629C76.959 363.012 82.7727 378.451 82.7727 394.55V485.6C82.7727 517.797 94.4003 548.676 115.097 571.443C135.795 594.21 163.866 607 193.136 607C200.454 607 207.472 603.802 212.646 598.111C217.82 592.419 220.727 584.699 220.727 576.65C220.727 568.601 217.82 560.881 212.646 555.189C207.472 549.498 200.454 546.3 193.136 546.3C178.501 546.3 164.466 539.905 154.117 528.521C143.768 517.138 137.955 501.699 137.955 485.6V394.55C137.866 377.267 134.423 360.203 127.857 344.501C121.291 328.799 111.752 314.821 99.8791 303.5C111.752 292.179 121.291 278.201 127.857 262.499C134.423 246.797 137.866 229.733 137.955 212.45V121.4ZM579.409 273.15C564.774 273.15 550.738 266.755 540.39 255.371C530.041 243.988 524.227 228.549 524.227 212.45V121.4C524.227 89.2027 512.6 58.3242 491.903 35.5572C471.205 12.7903 443.134 0 413.864 0C406.546 0 399.528 3.19758 394.354 8.88931C389.18 14.581 386.273 22.3007 386.273 30.35C386.273 38.3993 389.18 46.119 394.354 51.8107C399.528 57.5024 406.546 60.7 413.864 60.7C428.499 60.7 442.534 67.0952 452.883 78.4786C463.232 89.8621 469.045 105.301 469.045 121.4V212.45C469.134 229.733 472.577 246.797 479.143 262.499C485.709 278.201 495.248 292.179 507.121 303.5C495.248 314.821 485.709 328.799 479.143 344.501C472.577 360.203 469.134 377.267 469.045 394.55V485.6C469.045 501.699 463.232 517.138 452.883 528.521C442.534 539.905 428.499 546.3 413.864 546.3C406.546 546.3 399.528 549.498 394.354 555.189C389.18 560.881 386.273 568.601 386.273 576.65C386.273 584.699 389.18 592.419 394.354 598.111C399.528 603.802 406.546 607 413.864 607C443.134 607 471.205 594.21 491.903 571.443C512.6 548.676 524.227 517.797 524.227 485.6V394.55C524.227 378.451 530.041 363.012 540.39 351.629C550.738 340.245 564.774 333.85 579.409 333.85C586.727 333.85 593.745 330.652 598.919 324.961C604.093 319.269 607 311.549 607 303.5C607 295.451 604.093 287.731 598.919 282.039C593.745 276.348 586.727 273.15 579.409 273.15Z" fill="white"/>
</g>
<defs>
<clipPath id="clip0_1_17">
<rect width="607" height="607" fill="white"/>
</clipPath>
</defs>
</svg>
