<svg width="640" height="512" viewBox="0 0 640 512" fill="none" xmlns="http://www.w3.org/2000/svg">
<path d="M345.6 108.8C337.3 97.8 322.9 93.3 309.9 97.6C296.9 101.9 288 114.2 288 128V384C288 401.7 302.3 416 320 416C337.7 416 352 401.7 352 384V224L438.4 339.2C444.4 347.3 453.9 352 464 352C474.1 352 483.6 347.3 489.6 339.2L576 224V384C576 401.7 590.3 416 608 416C625.7 416 640 401.7 640 384V128C640 114.2 631.2 102 618.1 97.6C605 93.2 590.6 97.7 582.4 108.8L464 266.7L345.6 108.8ZM0 128C0 145.7 14.3 160 32 160H96V384C96 401.7 110.3 416 128 416C145.7 416 160 401.7 160 384V160H224C241.7 160 256 145.7 256 128C256 110.3 241.7 96 224 96H32C14.3 96 0 110.3 0 128Z" fill="white"/>
</svg>
