<svg xmlns="http://www.w3.org/2000/svg" viewBox="0 0 70 70"><defs><style>.cls-1,.cls-2,.cls-3{fill:none;stroke:#e87c1a;stroke-width:4px;}.cls-1,.cls-3{stroke-miterlimit:10;}.cls-2,.cls-3{stroke-linecap:round;}.cls-2{stroke-linejoin:round;}</style></defs><g id="heart"><path class="cls-1" d="M55.63,38.87a15.8,15.8,0,0,0-21-23.56A15.79,15.79,0,0,0,9,27.65c0,4.47,3,9.52,6.48,11.91"/><path class="cls-1" d="M55.63,38.87,37.26,57.29a3.65,3.65,0,1,1-5.17-5.16L42.4,41.81"/><path class="cls-2" d="M42.4,41.81,32.06,52.05a3.65,3.65,0,0,1-5.16-5.16L37.21,36.57"/><path class="cls-1" d="M37.23,36.55,26.89,46.79a3.66,3.66,0,0,1-5.17-5.17L32,31.31"/><path class="cls-3" d="M32.05,31.28,21.71,41.52a3.65,3.65,0,0,1-5.16-5.17L30.44,22.46"/><path class="cls-3" d="M35.18,15.66,45.83,26.42a3.43,3.43,0,0,1-.33,4.83,3.43,3.43,0,0,1-4.83.33l-9.73-9.72"/></g></svg>