<svg width="512" height="512" viewBox="0 0 512 512" fill="none" xmlns="http://www.w3.org/2000/svg">
<g clip-path="url(#clip0_1_12)">
<path d="M352 320C440.4 320 512 248.4 512 160C512 144.7 509.8 129.9 505.8 115.8C502.7 105 489.4 102.6 481.5 110.5L404.7 187.3C401.7 190.3 397.6 192 393.4 192H336C327.2 192 320 184.8 320 176V118.6C320 114.4 321.7 110.3 324.7 107.3L401.5 30.5C409.4 22.6 406.9 9.3 396.2 6.2C382.1 2.2 367.3 0 352 0C263.6 0 192 71.6 192 160C192 179.1 195.4 197.5 201.5 214.5L19.9 396.1C7.2 408.8 0 426.1 0 444.1C0 481.6 30.4 512 67.9 512C85.9 512 103.2 504.8 115.9 492.1L297.5 310.5C314.5 316.7 332.9 320 352 320ZM80 456C66.7 456 56 445.3 56 432C56 418.7 66.7 408 80 408C93.3 408 104 418.7 104 432C104 445.3 93.3 456 80 456Z" fill="white"/>
</g>
<defs>
<clipPath id="clip0_1_12">
<rect width="512" height="512" fill="white"/>
</clipPath>
</defs>
</svg>
