<svg xmlns="http://www.w3.org/2000/svg" viewBox="0 0 70 70"><defs><style>.cls-1,.cls-2{fill:none;stroke:#828282;stroke-miterlimit:10;stroke-width:4px;}.cls-2{stroke-linecap:round;}</style></defs><g id="book"><path class="cls-1" d="M42.52,12.34H63A1.65,1.65,0,0,1,64.6,14V54.82A1.65,1.65,0,0,1,63,56.48H41.51a2,2,0,0,0-1.31.5l-4.81,4.36a.07.07,0,0,1-.12-.06V19.59A7.24,7.24,0,0,1,42.52,12.34Z"/><line class="cls-2" x1="45.34" y1="26.08" x2="56.02" y2="26.08"/><line class="cls-2" x1="45.34" y1="35.61" x2="56.02" y2="35.61"/><line class="cls-2" x1="45.34" y1="45.14" x2="56.02" y2="45.14"/><path class="cls-1" d="M28.12,12.34H7.48a1.55,1.55,0,0,0-1.55,1.55v41a1.56,1.56,0,0,0,1.55,1.56H29.07a1.84,1.84,0,0,1,1.24.48l4.85,4.4a.07.07,0,0,0,.11,0V19.49A7.15,7.15,0,0,0,28.12,12.34Z"/><line class="cls-2" x1="25.19" y1="26.08" x2="14.52" y2="26.08"/><line class="cls-2" x1="25.19" y1="35.61" x2="14.52" y2="35.61"/><line class="cls-2" x1="25.19" y1="45.14" x2="14.52" y2="45.14"/></g></svg>