<svg xmlns="http://www.w3.org/2000/svg" viewBox="0 0 70 70"><defs><style>.cls-1,.cls-2{fill:none;stroke:#828282;stroke-miterlimit:10;stroke-width:4px;}.cls-1{stroke-linecap:round;}</style></defs><g id="delivery"><path class="cls-1" d="M14.82,12.88H47.74A1.09,1.09,0,0,1,48.83,14v5.51h7.71a1.09,1.09,0,0,1,1,.65l6.2,14A4.5,4.5,0,0,1,64.12,36V49.2a1.4,1.4,0,0,1-1.4,1.4H58.78"/><line class="cls-1" x1="48.89" y1="43.18" x2="48.83" y2="19.48"/><line class="cls-2" x1="64.12" y1="35" x2="48.89" y2="35"/><line class="cls-1" x1="10.3" y1="35.25" x2="33.28" y2="35.25"/><line class="cls-1" x1="6.38" y1="24.1" x2="24.29" y2="24.1"/><circle class="cls-1" cx="19.58" cy="50.6" r="7.14"/><circle class="cls-1" cx="51.26" cy="50.6" r="7.14"/><line class="cls-1" x1="26.72" y1="50.6" x2="44.12" y2="50.6"/></g></svg>